<svg xmlns="http://www.w3.org/2000/svg" viewBox="0 0 224.02 221.95"><defs><style>.cls-1{fill:#fff;}</style></defs><title>Asset 1</title><g id="Layer_2" data-name="Layer 2"><g id="Layer_1-2" data-name="Layer 1"><path class="cls-1" d="M131,7.09,94.31,29.19v.48C148.52,32,191.59,68.41,191.59,113s-47.25,79.13-101.46,81.47V222C162.14,220.1,224,173,224,112.83,224,63.35,185,21.44,131,7.09Z"/><path class="cls-1" d="M94.31,14.9h0l19-11.43C110,3,102.07,2.1,94.31,1.34,87.38.66,80.63.08,77.58,0H48.29V222H77.58V25L94.31,14.92Z"/><path class="cls-1" d="M0,3.47,19,14.9h0v0L35.74,25V0C32.69.08,25.93.66,19,1.34,11.25,2.1,3.27,3,0,3.47Z"/></g></g></svg>